<!--suppress XmlHighlighting -->
<svg version="1" xmlns="http://www.w3.org/2000/svg" width="933.333" height="933.333"
     viewBox="0 0 700.000000 700.000000">
    <path d="M86 183v33h65v-66H86v33zM171 183v33h66v-66h-66v33zM256 183v33h66v-66h-66v33zM341 183v33h67v-66h-67v33zM428 191.5V233h38v70.7c0 39.6.4 70.3.9 69.7.6-.7 28.8-67.3 57.4-135.7l2-4.7h18.8c10.4 0 18.9.3 18.9.7 0 .5-22 53-48.9 116.8l-48.8 116-19.1.3-19.2.2v83h3.9c5.4 0 23.5-1.8 30.1-3.1 17.6-3.3 35.8-9.1 51.8-16.5l9.3-4.3 6.1 4.9c6.7 5.4 18.5 11.8 26.3 14.4 7.1 2.3 21 4.6 27.6 4.6 19.5 0 45.8-9.2 67.4-23.5 14.7-9.8 32.7-25 43.7-37.2l4.3-4.7-3.5 2.1c-6 3.6-21.2 11-29.2 14.2-12.5 4.9-23.3 7.3-35.5 7.9-9.4.4-12.2.1-18-1.7-12.4-3.8-20.5-12.2-25.4-26.2l-2.3-6.6 5.1-6.9c20-27.1 33.5-61.9 37.2-95.6 12-109-66.5-207.4-175.9-220.3-6.9-.8-14.9-1.5-17.7-1.5H428v41.5zM171 266v33h66v-66h-66v33zM256 266.5V300h66v-67h-66v33.5zM341.5 234.3c-.3.7-.4 15.6-.3 33.2l.3 32 33.3.3 33.2.2v-67h-33c-25.7 0-33.2.3-33.5 1.3zM86 266.5V299h65v-65H86v32.5zM171 350v33h66v-66h-66v33zM256 350v33h66v-66h-66v33zM341 350v33h67v-66h-67v33zM257.5 401.2c-.3.7-.4 15.7-.3 33.3l.3 32h66v-66l-32.8-.3c-25.8-.2-32.9 0-33.2 1zM343 433.5V467h66v-67h-66v33.5zM341 517v33h67v-66h-67v33z"/>
</svg>