<?xml version="1.0" encoding="UTF-8"?>
<!--suppress ProblematicWhitespace -->
<svg enable-background="new 0 0 500 500" version="1.1" viewBox="0 0 500 500" xml:space="preserve" xmlns="http://www.w3.org/2000/svg">
<style type="text/css">
	.st0{fill:#8E8E8E;}
	.st1{fill:#D8D8D8;}
	.st2{opacity:0.2;fill:#888887;}
	.st3{opacity:0.4;fill:#888887;}
	.st4{opacity:0.6;fill:#888887;}
	.st5{opacity:0.8;fill:#888887;}
	.st6{fill:#888887;}
	.st7{fill:#FF6700;}
	.st8{opacity:0.2;fill:#FF6700;}
	.st9{opacity:0.4;fill:#FF6700;}
	.st10{opacity:0.6;fill:#FF6700;}
	.st11{opacity:0.8;fill:#FF6700;}
	.st12{opacity:0.2;fill:#FF0000;}
	.st13{opacity:0.4;fill:#FF0000;}
	.st14{opacity:0.6;fill:#FF0000;}
	.st15{opacity:0.8;fill:#FF0000;}
	.st16{fill:#FF0000;}
	.st17{fill:#FFFFFF;}
</style>
	<path class="st0" d="m448.8 249.9c0 78.9-64 142.9-142.9 142.9v-285.7c79 0 142.9 63.9 142.9 142.8z"/>
	<path class="st0" d="m500.3 345.3s-84.7 55.2-84.3-24.7l-48 49.2c-0.1 0 48.2 65.5 132.3-24.5z"/>
	<rect class="st1" x="306" y="166.7" width="27" height="166.4"/>
	<polygon class="st1" points="402.9 166.7 332.9 333.2 306 333.2 376 166.7"/>
<rect class="st2" y="107.1" width="47.2" height="47.2"/>
<rect class="st3" x="61" y="107.1" width="47.2" height="47.2"/>
<rect class="st4" x="122" y="107.1" width="47.2" height="47.2"/>
<rect class="st5" x="183" y="107.1" width="47.2" height="47.2"/>
<rect class="st6" x="244" y="107.1" width="47.2" height="47.2"/>
<rect class="st3" x="61" y="166.7" width="47.2" height="47.2"/>
<rect class="st4" x="122" y="166.7" width="47.2" height="47.2"/>
<rect class="st5" x="183" y="166.7" width="47.2" height="47.2"/>
<rect class="st6" x="244" y="166.7" width="47.2" height="47.2"/>
<rect class="st4" x="122" y="226.4" width="47.2" height="47.2"/>
<rect class="st5" x="183" y="226.4" width="47.2" height="47.2"/>
<rect class="st6" x="244" y="226.4" width="47.2" height="47.2"/>
<rect class="st5" x="183.9" y="286" width="47.2" height="47.2"/>
<rect class="st6" x="244.9" y="286" width="47.2" height="47.2"/>
<rect class="st6" x="244" y="345.6" width="47.2" height="47.2"/>
			<path class="st7" d="m448.8 249.9c0 78.9-64 142.9-142.9 142.9v-285.7c79 0 142.9 63.9 142.9 142.8z"/>
			<path class="st7" d="m500.3 345.3s-84.7 55.2-84.3-24.7l-48 49.2c-0.1 0 48.2 65.5 132.3-24.5z"/>
		<rect class="st8" y="107.1" width="47.2" height="47.2"/>
		<rect class="st9" x="61" y="107.1" width="47.2" height="47.2"/>
		<rect class="st10" x="122" y="107.1" width="47.2" height="47.2"/>
		<rect class="st11" x="183" y="107.1" width="47.2" height="47.2"/>
		<rect class="st7" x="244" y="107.1" width="47.2" height="47.2"/>
		<rect class="st9" x="61" y="166.7" width="47.2" height="47.2"/>
		<rect class="st10" x="122" y="166.7" width="47.2" height="47.2"/>
		<rect class="st11" x="183" y="166.7" width="47.2" height="47.2"/>
		<rect class="st7" x="244" y="166.7" width="47.2" height="47.2"/>
		<rect class="st10" x="122" y="226.4" width="47.2" height="47.2"/>
		<rect class="st11" x="183" y="226.4" width="47.2" height="47.2"/>
		<rect class="st7" x="244" y="226.4" width="47.2" height="47.2"/>
		<rect class="st11" x="183.9" y="286" width="47.2" height="47.2"/>
		<rect class="st7" x="244.9" y="286" width="47.2" height="47.2"/>
		<rect class="st7" x="244" y="345.6" width="47.2" height="47.2"/>
	<rect class="st12" y="107.1" width="47.2" height="47.2"/>
	<rect class="st13" x="61" y="107.1" width="47.2" height="47.2"/>
	<rect class="st14" x="122" y="107.1" width="47.2" height="47.2"/>
	<rect class="st15" x="183" y="107.1" width="47.2" height="47.2"/>
	<rect class="st16" x="244" y="107.1" width="47.2" height="47.2"/>
	<rect class="st13" x="61" y="166.7" width="47.2" height="47.2"/>
	<rect class="st14" x="122" y="166.7" width="47.2" height="47.2"/>
	<rect class="st15" x="183" y="166.7" width="47.2" height="47.2"/>
	<rect class="st16" x="244" y="166.7" width="47.2" height="47.2"/>
	<rect class="st14" x="122" y="226.4" width="47.2" height="47.2"/>
	<rect class="st15" x="183" y="226.4" width="47.2" height="47.2"/>
	<rect class="st16" x="244" y="226.4" width="47.2" height="47.2"/>
	<rect class="st15" x="183.9" y="286" width="47.2" height="47.2"/>
	<rect class="st16" x="244.9" y="286" width="47.2" height="47.2"/>
	<rect class="st16" x="244" y="345.6" width="47.2" height="47.2"/>
		<rect class="st17" x="306" y="166.7" width="27" height="166.4"/>
		<polygon class="st17" points="402.9 166.7 332.9 333.2 306 333.2 376 166.7"/>
</svg>
